<?xml version="1.0" encoding="UTF-8" standalone="no"?>
<!DOCTYPE svg PUBLIC "-//W3C//DTD SVG 1.1//EN"
 "http://www.w3.org/Graphics/SVG/1.1/DTD/svg11.dtd">
<!-- Generated by graphviz version 2.40.1 (20161225.0304)
 -->
<!-- Title: dependencies Pages: 1 -->
<svg width="1374pt" height="284pt"
 viewBox="0.00 0.00 1374.00 284.00" xmlns="http://www.w3.org/2000/svg" xmlns:xlink="http://www.w3.org/1999/xlink">
<g id="graph0" class="graph" transform="scale(1 1) rotate(0) translate(4 280)">
<title>dependencies</title>
<polygon fill="#ffffff" stroke="transparent" points="-4,4 -4,-280 1370,-280 1370,4 -4,4"/>
<text text-anchor="start" x="662.0091" y="-42.4" font-family="sans-serif" font-weight="bold" font-size="14.00" fill="#000000">Legend</text>
<polygon fill="#ffffb3" stroke="transparent" points="449,-10 449,-30 469,-30 469,-10 449,-10"/>
<text text-anchor="start" x="472.629" y="-15.4" font-family="sans-serif" font-size="14.00" fill="#000000"> &#160;Declarations</text>
<polygon fill="#8dd3c7" stroke="transparent" points="562,-10 562,-30 582,-30 582,-10 562,-10"/>
<text text-anchor="start" x="585.7251" y="-15.4" font-family="sans-serif" font-size="14.00" fill="#000000"> &#160;Module</text>
<polygon fill="#80b1d3" stroke="transparent" points="648,-10 648,-30 668,-30 668,-10 648,-10"/>
<text text-anchor="start" x="671.7812" y="-15.4" font-family="sans-serif" font-size="14.00" fill="#000000"> &#160;Bootstrap</text>
<polygon fill="#fdb462" stroke="transparent" points="745,-10 745,-30 765,-30 765,-10 745,-10"/>
<text text-anchor="start" x="768.6732" y="-15.4" font-family="sans-serif" font-size="14.00" fill="#000000"> &#160;Providers</text>
<polygon fill="#fb8072" stroke="transparent" points="841,-10 841,-30 861,-30 861,-10 841,-10"/>
<text text-anchor="start" x="864.7258" y="-15.4" font-family="sans-serif" font-size="14.00" fill="#000000"> &#160;Exports</text>
<g id="clust1" class="cluster">
<title>cluster_AppModule</title>
<polygon fill="none" stroke="#000000" stroke-dasharray="1,5" points="8,-70 8,-268 1358,-268 1358,-70 8,-70"/>
</g>
<g id="clust2" class="cluster">
<title>cluster_AppModule_declarations</title>
<polygon fill="none" stroke="#000000" points="544,-78 544,-130 1350,-130 1350,-78 544,-78"/>
</g>
<g id="clust9" class="cluster">
<title>cluster_AppModule_imports</title>
<polygon fill="none" stroke="#000000" points="16,-78 16,-130 536,-130 536,-78 16,-78"/>
</g>
<g id="clust11" class="cluster">
<title>cluster_AppModule_bootstrap</title>
<polygon fill="none" stroke="#000000" points="608,-208 608,-260 732,-260 732,-208 608,-208"/>
</g>
<!-- AppComponent -->
<g id="node1" class="node">
<title>AppComponent</title>
<polygon fill="#ffffb3" stroke="#000000" points="1341.9399,-122 1236.0601,-122 1236.0601,-86 1341.9399,-86 1341.9399,-122"/>
<text text-anchor="middle" x="1289" y="-99.8" font-family="Times,serif" font-size="14.00" fill="#000000">AppComponent</text>
</g>
<!-- AppModule -->
<g id="node7" class="node">
<title>AppModule</title>
<polygon fill="#8dd3c7" stroke="#000000" points="711.6571,-187 708.6571,-191 687.6571,-191 684.6571,-187 628.3429,-187 628.3429,-151 711.6571,-151 711.6571,-187"/>
<text text-anchor="middle" x="670" y="-164.8" font-family="Times,serif" font-size="14.00" fill="#000000">AppModule</text>
</g>
<!-- AppComponent&#45;&gt;AppModule -->
<g id="edge1" class="edge">
<title>AppComponent&#45;&gt;AppModule</title>
<path fill="none" stroke="#000000" d="M1289,-122.0109C1289,-144.4852 1289,-180 1289,-180 1289,-180 722.0597,-180 722.0597,-180"/>
<polygon fill="#000000" stroke="#000000" points="722.0598,-176.5001 712.0597,-180 722.0597,-183.5001 722.0598,-176.5001"/>
</g>
<!-- ProfileComponent -->
<g id="node2" class="node">
<title>ProfileComponent</title>
<polygon fill="#ffffb3" stroke="#000000" points="1218.9328,-122 1099.0672,-122 1099.0672,-86 1218.9328,-86 1218.9328,-122"/>
<text text-anchor="middle" x="1159" y="-99.8" font-family="Times,serif" font-size="14.00" fill="#000000">ProfileComponent</text>
</g>
<!-- ProfileComponent&#45;&gt;AppModule -->
<g id="edge2" class="edge">
<title>ProfileComponent&#45;&gt;AppModule</title>
<path fill="none" stroke="#000000" d="M1159,-122.1289C1159,-142.5724 1159,-173 1159,-173 1159,-173 721.6919,-173 721.6919,-173"/>
<polygon fill="#000000" stroke="#000000" points="721.6919,-169.5001 711.6919,-173 721.6918,-176.5001 721.6919,-169.5001"/>
</g>
<!-- MatchesComponent -->
<g id="node3" class="node">
<title>MatchesComponent</title>
<polygon fill="#ffffb3" stroke="#000000" points="1081.2562,-122 952.7438,-122 952.7438,-86 1081.2562,-86 1081.2562,-122"/>
<text text-anchor="middle" x="1017" y="-99.8" font-family="Times,serif" font-size="14.00" fill="#000000">MatchesComponent</text>
</g>
<!-- MatchesComponent&#45;&gt;AppModule -->
<g id="edge3" class="edge">
<title>MatchesComponent&#45;&gt;AppModule</title>
<path fill="none" stroke="#000000" d="M1017,-122.2667C1017,-140.5552 1017,-166 1017,-166 1017,-166 721.8563,-166 721.8563,-166"/>
<polygon fill="#000000" stroke="#000000" points="721.8563,-162.5001 711.8563,-166 721.8563,-169.5001 721.8563,-162.5001"/>
</g>
<!-- EventsComponent -->
<g id="node4" class="node">
<title>EventsComponent</title>
<polygon fill="#ffffb3" stroke="#000000" points="934.9356,-122 815.0644,-122 815.0644,-86 934.9356,-86 934.9356,-122"/>
<text text-anchor="middle" x="875" y="-99.8" font-family="Times,serif" font-size="14.00" fill="#000000">EventsComponent</text>
</g>
<!-- EventsComponent&#45;&gt;AppModule -->
<g id="edge4" class="edge">
<title>EventsComponent&#45;&gt;AppModule</title>
<path fill="none" stroke="#000000" d="M875,-122.0091C875,-138.0494 875,-159 875,-159 875,-159 721.9795,-159 721.9795,-159"/>
<polygon fill="#000000" stroke="#000000" points="721.9795,-155.5001 711.9795,-159 721.9795,-162.5001 721.9795,-155.5001"/>
</g>
<!-- NavbarComponent -->
<g id="node5" class="node">
<title>NavbarComponent</title>
<polygon fill="#ffffb3" stroke="#000000" points="797.0297,-122 674.9703,-122 674.9703,-86 797.0297,-86 797.0297,-122"/>
<text text-anchor="middle" x="736" y="-99.8" font-family="Times,serif" font-size="14.00" fill="#000000">NavbarComponent</text>
</g>
<!-- NavbarComponent&#45;&gt;AppModule -->
<g id="edge5" class="edge">
<title>NavbarComponent&#45;&gt;AppModule</title>
<path fill="none" stroke="#000000" d="M693.2819,-122.1061C693.2819,-122.1061 693.2819,-140.991 693.2819,-140.991"/>
<polygon fill="#000000" stroke="#000000" points="689.782,-140.9909 693.2819,-150.991 696.782,-140.991 689.782,-140.9909"/>
</g>
<!-- EditComponent -->
<g id="node6" class="node">
<title>EditComponent</title>
<polygon fill="#ffffb3" stroke="#000000" points="656.1667,-122 551.8333,-122 551.8333,-86 656.1667,-86 656.1667,-122"/>
<text text-anchor="middle" x="604" y="-99.8" font-family="Times,serif" font-size="14.00" fill="#000000">EditComponent</text>
</g>
<!-- EditComponent&#45;&gt;AppModule -->
<g id="edge6" class="edge">
<title>EditComponent&#45;&gt;AppModule</title>
<path fill="none" stroke="#000000" d="M642.2525,-122.1061C642.2525,-122.1061 642.2525,-140.991 642.2525,-140.991"/>
<polygon fill="#000000" stroke="#000000" points="638.7525,-140.9909 642.2525,-150.991 645.7525,-140.991 638.7525,-140.9909"/>
</g>
<!-- AppComponent  -->
<g id="node12" class="node">
<title>AppComponent </title>
<polygon fill="#80b1d3" stroke="#000000" points="724.439,-252 615.561,-252 615.561,-216 724.439,-216 724.439,-252"/>
<text text-anchor="middle" x="670" y="-229.8" font-family="Times,serif" font-size="14.00" fill="#000000">AppComponent </text>
</g>
<!-- AppModule&#45;&gt;AppComponent  -->
<g id="edge11" class="edge">
<title>AppModule&#45;&gt;AppComponent </title>
<path fill="none" stroke="#000000" stroke-dasharray="1,5" d="M670,-187.1061C670,-187.1061 670,-205.991 670,-205.991"/>
<polygon fill="#000000" stroke="#000000" points="666.5001,-205.9909 670,-215.991 673.5001,-205.991 666.5001,-205.9909"/>
</g>
<!-- BrowserModule -->
<g id="node8" class="node">
<title>BrowserModule</title>
<polygon fill="#8dd3c7" stroke="#000000" points="528.4734,-122 525.4734,-126 504.4734,-126 501.4734,-122 421.5266,-122 421.5266,-86 528.4734,-86 528.4734,-122"/>
<text text-anchor="middle" x="475" y="-99.8" font-family="Times,serif" font-size="14.00" fill="#000000">BrowserModule</text>
</g>
<!-- BrowserModule&#45;&gt;AppModule -->
<g id="edge7" class="edge">
<title>BrowserModule&#45;&gt;AppModule</title>
<path fill="none" stroke="#000000" d="M475,-122.0091C475,-138.0494 475,-159 475,-159 475,-159 618.1676,-159 618.1676,-159"/>
<polygon fill="#000000" stroke="#000000" points="618.1676,-162.5001 628.1676,-159 618.1676,-155.5001 618.1676,-162.5001"/>
</g>
<!-- HttpClientModule -->
<g id="node9" class="node">
<title>HttpClientModule</title>
<polygon fill="#8dd3c7" stroke="#000000" points="403.1611,-122 400.1611,-126 379.1611,-126 376.1611,-122 284.8389,-122 284.8389,-86 403.1611,-86 403.1611,-122"/>
<text text-anchor="middle" x="344" y="-99.8" font-family="Times,serif" font-size="14.00" fill="#000000">HttpClientModule</text>
</g>
<!-- HttpClientModule&#45;&gt;AppModule -->
<g id="edge8" class="edge">
<title>HttpClientModule&#45;&gt;AppModule</title>
<path fill="none" stroke="#000000" d="M344,-122.2667C344,-140.5552 344,-166 344,-166 344,-166 618.0486,-166 618.0486,-166"/>
<polygon fill="#000000" stroke="#000000" points="618.0486,-169.5001 628.0486,-166 618.0486,-162.5001 618.0486,-169.5001"/>
</g>
<!-- AppRoutingModule -->
<g id="node10" class="node">
<title>AppRoutingModule</title>
<polygon fill="#8dd3c7" stroke="#000000" points="266.2744,-122 263.2744,-126 242.2744,-126 239.2744,-122 137.7256,-122 137.7256,-86 266.2744,-86 266.2744,-122"/>
<text text-anchor="middle" x="202" y="-99.8" font-family="Times,serif" font-size="14.00" fill="#000000">AppRoutingModule</text>
</g>
<!-- AppRoutingModule&#45;&gt;AppModule -->
<g id="edge9" class="edge">
<title>AppRoutingModule&#45;&gt;AppModule</title>
<path fill="none" stroke="#000000" d="M202,-122.1289C202,-142.5724 202,-173 202,-173 202,-173 618.0563,-173 618.0563,-173"/>
<polygon fill="#000000" stroke="#000000" points="618.0563,-176.5001 628.0563,-173 618.0562,-169.5001 618.0563,-176.5001"/>
</g>
<!-- FormsModule -->
<g id="node11" class="node">
<title>FormsModule</title>
<polygon fill="#8dd3c7" stroke="#000000" points="119.8288,-122 116.8288,-126 95.8288,-126 92.8288,-122 24.1712,-122 24.1712,-86 119.8288,-86 119.8288,-122"/>
<text text-anchor="middle" x="72" y="-99.8" font-family="Times,serif" font-size="14.00" fill="#000000">FormsModule</text>
</g>
<!-- FormsModule&#45;&gt;AppModule -->
<g id="edge10" class="edge">
<title>FormsModule&#45;&gt;AppModule</title>
<path fill="none" stroke="#000000" d="M72,-122.0109C72,-144.4852 72,-180 72,-180 72,-180 617.9498,-180 617.9498,-180"/>
<polygon fill="#000000" stroke="#000000" points="617.9498,-183.5001 627.9498,-180 617.9498,-176.5001 617.9498,-183.5001"/>
</g>
</g>
</svg>
