<?xml version="1.0" encoding="UTF-8" standalone="no"?>
<!DOCTYPE svg PUBLIC "-//W3C//DTD SVG 1.1//EN"
 "http://www.w3.org/Graphics/SVG/1.1/DTD/svg11.dtd">
<!-- Generated by graphviz version 2.40.1 (20161225.0304)
 -->
<!-- Title: dependencies Pages: 1 -->
<svg width="1718pt" height="290pt"
 viewBox="0.00 0.00 1718.00 290.00" xmlns="http://www.w3.org/2000/svg" xmlns:xlink="http://www.w3.org/1999/xlink">
<g id="graph0" class="graph" transform="scale(1 1) rotate(0) translate(4 286)">
<title>dependencies</title>
<polygon fill="#ffffff" stroke="transparent" points="-4,4 -4,-286 1714,-286 1714,4 -4,4"/>
<text text-anchor="start" x="834.0091" y="-42.4" font-family="sans-serif" font-weight="bold" font-size="14.00" fill="#000000">Legend</text>
<polygon fill="#ffffb3" stroke="transparent" points="621,-10 621,-30 641,-30 641,-10 621,-10"/>
<text text-anchor="start" x="644.629" y="-15.4" font-family="sans-serif" font-size="14.00" fill="#000000"> &#160;Declarations</text>
<polygon fill="#8dd3c7" stroke="transparent" points="734,-10 734,-30 754,-30 754,-10 734,-10"/>
<text text-anchor="start" x="757.7251" y="-15.4" font-family="sans-serif" font-size="14.00" fill="#000000"> &#160;Module</text>
<polygon fill="#80b1d3" stroke="transparent" points="820,-10 820,-30 840,-30 840,-10 820,-10"/>
<text text-anchor="start" x="843.7812" y="-15.4" font-family="sans-serif" font-size="14.00" fill="#000000"> &#160;Bootstrap</text>
<polygon fill="#fdb462" stroke="transparent" points="917,-10 917,-30 937,-30 937,-10 917,-10"/>
<text text-anchor="start" x="940.6732" y="-15.4" font-family="sans-serif" font-size="14.00" fill="#000000"> &#160;Providers</text>
<polygon fill="#fb8072" stroke="transparent" points="1013,-10 1013,-30 1033,-30 1033,-10 1013,-10"/>
<text text-anchor="start" x="1036.7258" y="-15.4" font-family="sans-serif" font-size="14.00" fill="#000000"> &#160;Exports</text>
<g id="clust1" class="cluster">
<title>cluster_AppModule</title>
<polygon fill="none" stroke="#000000" stroke-dasharray="1,5" points="8,-70 8,-274 1358,-274 1358,-70 8,-70"/>
</g>
<g id="clust2" class="cluster">
<title>cluster_AppModule_declarations</title>
<polygon fill="none" stroke="#000000" points="16,-78 16,-130 822,-130 822,-78 16,-78"/>
</g>
<g id="clust9" class="cluster">
<title>cluster_AppModule_imports</title>
<polygon fill="none" stroke="#000000" points="830,-78 830,-130 1350,-130 1350,-78 830,-78"/>
</g>
<g id="clust11" class="cluster">
<title>cluster_AppModule_bootstrap</title>
<polygon fill="none" stroke="#000000" points="634,-214 634,-266 758,-266 758,-214 634,-214"/>
</g>
<g id="clust13" class="cluster">
<title>cluster_AppRoutingModule</title>
<polygon fill="none" stroke="#000000" stroke-dasharray="1,5" points="1366,-138 1366,-206 1702,-206 1702,-138 1366,-138"/>
</g>
<g id="clust15" class="cluster">
<title>cluster_AppRoutingModule_imports</title>
<polygon fill="none" stroke="#000000" points="1500,-146 1500,-198 1694,-198 1694,-146 1500,-146"/>
</g>
<g id="clust16" class="cluster">
<title>cluster_AppRoutingModule_exports</title>
<polygon fill="none" stroke="#000000" points="1374,-146 1374,-198 1492,-198 1492,-146 1374,-146"/>
</g>
<!-- AppComponent -->
<g id="node1" class="node">
<title>AppComponent</title>
<polygon fill="#ffffb3" stroke="#000000" points="813.9399,-122 708.0601,-122 708.0601,-86 813.9399,-86 813.9399,-122"/>
<text text-anchor="middle" x="761" y="-99.8" font-family="Times,serif" font-size="14.00" fill="#000000">AppComponent</text>
</g>
<!-- AppModule -->
<g id="node7" class="node">
<title>AppModule</title>
<polygon fill="#8dd3c7" stroke="#000000" points="737.6571,-190 734.6571,-194 713.6571,-194 710.6571,-190 654.3429,-190 654.3429,-154 737.6571,-154 737.6571,-190"/>
<text text-anchor="middle" x="696" y="-167.8" font-family="Times,serif" font-size="14.00" fill="#000000">AppModule</text>
</g>
<!-- AppComponent&#45;&gt;AppModule -->
<g id="edge1" class="edge">
<title>AppComponent&#45;&gt;AppModule</title>
<path fill="none" stroke="#000000" d="M723.0544,-122.2228C723.0544,-122.2228 723.0544,-143.7269 723.0544,-143.7269"/>
<polygon fill="#000000" stroke="#000000" points="719.5544,-143.7269 723.0544,-153.7269 726.5544,-143.727 719.5544,-143.7269"/>
</g>
<!-- ProfileComponent -->
<g id="node2" class="node">
<title>ProfileComponent</title>
<polygon fill="#ffffb3" stroke="#000000" points="690.9328,-122 571.0672,-122 571.0672,-86 690.9328,-86 690.9328,-122"/>
<text text-anchor="middle" x="631" y="-99.8" font-family="Times,serif" font-size="14.00" fill="#000000">ProfileComponent</text>
</g>
<!-- ProfileComponent&#45;&gt;AppModule -->
<g id="edge2" class="edge">
<title>ProfileComponent&#45;&gt;AppModule</title>
<path fill="none" stroke="#000000" d="M672.4439,-122.2228C672.4439,-122.2228 672.4439,-143.7269 672.4439,-143.7269"/>
<polygon fill="#000000" stroke="#000000" points="668.944,-143.7269 672.4439,-153.7269 675.944,-143.727 668.944,-143.7269"/>
</g>
<!-- MatchesComponent -->
<g id="node3" class="node">
<title>MatchesComponent</title>
<polygon fill="#ffffb3" stroke="#000000" points="553.2562,-122 424.7438,-122 424.7438,-86 553.2562,-86 553.2562,-122"/>
<text text-anchor="middle" x="489" y="-99.8" font-family="Times,serif" font-size="14.00" fill="#000000">MatchesComponent</text>
</g>
<!-- MatchesComponent&#45;&gt;AppModule -->
<g id="edge3" class="edge">
<title>MatchesComponent&#45;&gt;AppModule</title>
<path fill="none" stroke="#000000" d="M489,-122.0336C489,-139.0597 489,-162 489,-162 489,-162 644.1105,-162 644.1105,-162"/>
<polygon fill="#000000" stroke="#000000" points="644.1105,-165.5001 654.1105,-162 644.1104,-158.5001 644.1105,-165.5001"/>
</g>
<!-- EventsComponent -->
<g id="node4" class="node">
<title>EventsComponent</title>
<polygon fill="#ffffb3" stroke="#000000" points="406.9356,-122 287.0644,-122 287.0644,-86 406.9356,-86 406.9356,-122"/>
<text text-anchor="middle" x="347" y="-99.8" font-family="Times,serif" font-size="14.00" fill="#000000">EventsComponent</text>
</g>
<!-- EventsComponent&#45;&gt;AppModule -->
<g id="edge4" class="edge">
<title>EventsComponent&#45;&gt;AppModule</title>
<path fill="none" stroke="#000000" d="M347,-122.1061C347,-141.3391 347,-169 347,-169 347,-169 644.2491,-169 644.2491,-169"/>
<polygon fill="#000000" stroke="#000000" points="644.2491,-172.5001 654.2491,-169 644.2491,-165.5001 644.2491,-172.5001"/>
</g>
<!-- NavbarComponent -->
<g id="node5" class="node">
<title>NavbarComponent</title>
<polygon fill="#ffffb3" stroke="#000000" points="269.0297,-122 146.9703,-122 146.9703,-86 269.0297,-86 269.0297,-122"/>
<text text-anchor="middle" x="208" y="-99.8" font-family="Times,serif" font-size="14.00" fill="#000000">NavbarComponent</text>
</g>
<!-- NavbarComponent&#45;&gt;AppModule -->
<g id="edge5" class="edge">
<title>NavbarComponent&#45;&gt;AppModule</title>
<path fill="none" stroke="#000000" d="M208,-122.1686C208,-143.498 208,-176 208,-176 208,-176 643.971,-176 643.971,-176"/>
<polygon fill="#000000" stroke="#000000" points="643.9711,-179.5001 653.971,-176 643.971,-172.5001 643.9711,-179.5001"/>
</g>
<!-- EditComponent -->
<g id="node6" class="node">
<title>EditComponent</title>
<polygon fill="#ffffb3" stroke="#000000" points="128.1667,-122 23.8333,-122 23.8333,-86 128.1667,-86 128.1667,-122"/>
<text text-anchor="middle" x="76" y="-99.8" font-family="Times,serif" font-size="14.00" fill="#000000">EditComponent</text>
</g>
<!-- EditComponent&#45;&gt;AppModule -->
<g id="edge6" class="edge">
<title>EditComponent&#45;&gt;AppModule</title>
<path fill="none" stroke="#000000" d="M76,-122.3228C76,-145.6602 76,-183 76,-183 76,-183 643.8723,-183 643.8723,-183"/>
<polygon fill="#000000" stroke="#000000" points="643.8724,-186.5001 653.8723,-183 643.8723,-179.5001 643.8724,-186.5001"/>
</g>
<!-- AppComponent  -->
<g id="node12" class="node">
<title>AppComponent </title>
<polygon fill="#80b1d3" stroke="#000000" points="750.439,-258 641.561,-258 641.561,-222 750.439,-222 750.439,-258"/>
<text text-anchor="middle" x="696" y="-235.8" font-family="Times,serif" font-size="14.00" fill="#000000">AppComponent </text>
</g>
<!-- AppModule&#45;&gt;AppComponent  -->
<g id="edge11" class="edge">
<title>AppModule&#45;&gt;AppComponent </title>
<path fill="none" stroke="#000000" stroke-dasharray="1,5" d="M696,-190.2228C696,-190.2228 696,-211.7269 696,-211.7269"/>
<polygon fill="#000000" stroke="#000000" points="692.5001,-211.7269 696,-221.7269 699.5001,-211.727 692.5001,-211.7269"/>
</g>
<!-- BrowserModule -->
<g id="node8" class="node">
<title>BrowserModule</title>
<polygon fill="#8dd3c7" stroke="#000000" points="1195.4734,-122 1192.4734,-126 1171.4734,-126 1168.4734,-122 1088.5266,-122 1088.5266,-86 1195.4734,-86 1195.4734,-122"/>
<text text-anchor="middle" x="1142" y="-99.8" font-family="Times,serif" font-size="14.00" fill="#000000">BrowserModule</text>
</g>
<!-- BrowserModule&#45;&gt;AppModule -->
<g id="edge7" class="edge">
<title>BrowserModule&#45;&gt;AppModule</title>
<path fill="none" stroke="#000000" d="M1142,-122.1686C1142,-143.498 1142,-176 1142,-176 1142,-176 747.9586,-176 747.9586,-176"/>
<polygon fill="#000000" stroke="#000000" points="747.9586,-172.5001 737.9586,-176 747.9586,-179.5001 747.9586,-172.5001"/>
</g>
<!-- HttpClientModule -->
<g id="node9" class="node">
<title>HttpClientModule</title>
<polygon fill="#8dd3c7" stroke="#000000" points="1070.1611,-122 1067.1611,-126 1046.1611,-126 1043.1611,-122 951.8389,-122 951.8389,-86 1070.1611,-86 1070.1611,-122"/>
<text text-anchor="middle" x="1011" y="-99.8" font-family="Times,serif" font-size="14.00" fill="#000000">HttpClientModule</text>
</g>
<!-- HttpClientModule&#45;&gt;AppModule -->
<g id="edge8" class="edge">
<title>HttpClientModule&#45;&gt;AppModule</title>
<path fill="none" stroke="#000000" d="M1011,-122.1061C1011,-141.3391 1011,-169 1011,-169 1011,-169 747.8296,-169 747.8296,-169"/>
<polygon fill="#000000" stroke="#000000" points="747.8296,-165.5001 737.8296,-169 747.8295,-172.5001 747.8296,-165.5001"/>
</g>
<!-- AppRoutingModule -->
<g id="node10" class="node">
<title>AppRoutingModule</title>
<polygon fill="#8dd3c7" stroke="#000000" points="1342.2744,-122 1339.2744,-126 1318.2744,-126 1315.2744,-122 1213.7256,-122 1213.7256,-86 1342.2744,-86 1342.2744,-122"/>
<text text-anchor="middle" x="1278" y="-99.8" font-family="Times,serif" font-size="14.00" fill="#000000">AppRoutingModule</text>
</g>
<!-- AppRoutingModule&#45;&gt;AppModule -->
<g id="edge9" class="edge">
<title>AppRoutingModule&#45;&gt;AppModule</title>
<path fill="none" stroke="#000000" d="M1278,-122.3228C1278,-145.6602 1278,-183 1278,-183 1278,-183 747.856,-183 747.856,-183"/>
<polygon fill="#000000" stroke="#000000" points="747.856,-179.5001 737.856,-183 747.856,-186.5001 747.856,-179.5001"/>
</g>
<!-- RouterModule  -->
<g id="node14" class="node">
<title>RouterModule </title>
<polygon fill="#fb8072" stroke="#000000" points="1483.6523,-190 1382.3477,-190 1382.3477,-154 1483.6523,-154 1483.6523,-190"/>
<text text-anchor="middle" x="1433" y="-167.8" font-family="Times,serif" font-size="14.00" fill="#000000">RouterModule </text>
</g>
<!-- AppRoutingModule&#45;&gt;RouterModule  -->
<g id="edge13" class="edge">
<title>AppRoutingModule&#45;&gt;RouterModule </title>
<path fill="none" stroke="#000000" stroke-dasharray="5,2" d="M1342.3874,-110C1384.9734,-110 1433,-110 1433,-110 1433,-110 1433,-143.7333 1433,-143.7333"/>
<polygon fill="#000000" stroke="#000000" points="1429.5001,-143.7333 1433,-153.7333 1436.5001,-143.7333 1429.5001,-143.7333"/>
</g>
<!-- FormsModule -->
<g id="node11" class="node">
<title>FormsModule</title>
<polygon fill="#8dd3c7" stroke="#000000" points="933.8288,-122 930.8288,-126 909.8288,-126 906.8288,-122 838.1712,-122 838.1712,-86 933.8288,-86 933.8288,-122"/>
<text text-anchor="middle" x="886" y="-99.8" font-family="Times,serif" font-size="14.00" fill="#000000">FormsModule</text>
</g>
<!-- FormsModule&#45;&gt;AppModule -->
<g id="edge10" class="edge">
<title>FormsModule&#45;&gt;AppModule</title>
<path fill="none" stroke="#000000" d="M886,-122.0336C886,-139.0597 886,-162 886,-162 886,-162 747.6963,-162 747.6963,-162"/>
<polygon fill="#000000" stroke="#000000" points="747.6963,-158.5001 737.6963,-162 747.6963,-165.5001 747.6963,-158.5001"/>
</g>
<!-- RouterModule.forRoot(args) -->
<g id="node13" class="node">
<title>RouterModule.forRoot(args)</title>
<polygon fill="#8dd3c7" stroke="#000000" points="1685.8419,-190 1682.8419,-194 1661.8419,-194 1658.8419,-190 1508.1581,-190 1508.1581,-154 1685.8419,-154 1685.8419,-190"/>
<text text-anchor="middle" x="1597" y="-167.8" font-family="Times,serif" font-size="14.00" fill="#000000">RouterModule.forRoot(args)</text>
</g>
<!-- RouterModule.forRoot(args)&#45;&gt;AppRoutingModule -->
<g id="edge12" class="edge">
<title>RouterModule.forRoot(args)&#45;&gt;AppRoutingModule</title>
<path fill="none" stroke="#000000" d="M1597,-153.7079C1597,-131.7943 1597,-98 1597,-98 1597,-98 1352.5544,-98 1352.5544,-98"/>
<polygon fill="#000000" stroke="#000000" points="1352.5544,-94.5001 1342.5544,-98 1352.5544,-101.5001 1352.5544,-94.5001"/>
</g>
</g>
</svg>
